<svg width="34" height="34" viewBox="0 0 34 34" fill="none" xmlns="http://www.w3.org/2000/svg">
<path d="M23.7711 20.2273C23.3703 19.5383 22.8922 18.2234 22.8922 15.875V15.3758C22.8922 12.1063 20.2695 9.42734 17.0422 9.40625H17C16.225 9.40625 15.4577 9.55912 14.7419 9.85611C14.0261 10.1531 13.3759 10.5884 12.8286 11.137C12.2813 11.6856 11.8476 12.3368 11.5523 13.0533C11.257 13.7698 11.106 14.5375 11.1078 15.3125V15.875C11.1078 18.2234 10.6297 19.5383 10.2289 20.2273C10.106 20.4415 10.0415 20.6842 10.0416 20.9311C10.0417 21.1781 10.1065 21.4207 10.2295 21.6348C10.3526 21.8488 10.5296 22.027 10.7429 22.1514C10.9562 22.2757 11.1984 22.3421 11.4453 22.3438H13.9203C13.9936 23.1098 14.3497 23.821 14.9192 24.3385C15.4886 24.8561 16.2305 25.1429 17 25.1429C17.7695 25.1429 18.5114 24.8561 19.0808 24.3385C19.6503 23.821 20.0064 23.1098 20.0797 22.3438H22.5547C22.8016 22.3421 23.0438 22.2757 23.2571 22.1514C23.4704 22.027 23.6474 21.8488 23.7705 21.6348C23.8935 21.4207 23.9583 21.1781 23.9584 20.9311C23.9585 20.6842 23.894 20.4415 23.7711 20.2273ZM17 23.4688C16.6762 23.4675 16.3626 23.3551 16.1117 23.1503C15.8609 22.9455 15.6879 22.6608 15.6219 22.3438H18.3781C18.3121 22.6608 18.1391 22.9455 17.8883 23.1503C17.6374 23.3551 17.3238 23.4675 17 23.4688ZM11.9094 20.6562C12.6336 19.1375 12.7953 17.2461 12.7953 15.875V15.3125C12.7925 14.7589 12.8993 14.2102 13.1094 13.698C13.3196 13.1858 13.629 12.7203 14.0198 12.3282C14.4106 11.9361 14.8751 11.6251 15.3866 11.4133C15.8981 11.2014 16.4464 11.0928 17 11.0938H17.0352C19.3344 11.1078 21.2047 13.0273 21.2047 15.3758V15.875C21.2047 17.2461 21.3664 19.1375 22.0906 20.6562H11.9094Z" fill="white"/>
</svg>
