<svg width="34" height="34" viewBox="0 0 34 34" fill="none" xmlns="http://www.w3.org/2000/svg">
<path d="M17.0001 13.0625C16.2213 13.0625 15.4601 13.2934 14.8125 13.7261C14.165 14.1587 13.6603 14.7737 13.3623 15.4932C13.0643 16.2127 12.9863 17.0044 13.1383 17.7682C13.2902 18.532 13.6652 19.2335 14.2159 19.7842C14.7665 20.3349 15.4681 20.7099 16.2319 20.8618C16.9957 21.0138 17.7874 20.9358 18.5069 20.6378C19.2264 20.3397 19.8414 19.8351 20.274 19.1875C20.7067 18.54 20.9376 17.7787 20.9376 17C20.9376 15.9557 20.5228 14.9542 19.7843 14.2158C19.0459 13.4773 18.0444 13.0625 17.0001 13.0625ZM17.0001 19.25C16.5551 19.25 16.1201 19.118 15.7501 18.8708C15.3801 18.6236 15.0917 18.2722 14.9214 17.861C14.7511 17.4499 14.7065 16.9975 14.7933 16.561C14.8801 16.1246 15.0944 15.7237 15.4091 15.409C15.7238 15.0943 16.1247 14.88 16.5611 14.7932C16.9976 14.7064 17.45 14.751 17.8611 14.9213C18.2723 15.0916 18.6237 15.3799 18.8709 15.75C19.1181 16.12 19.2501 16.555 19.2501 17C19.2482 17.5962 19.0106 18.1674 18.589 18.5889C18.1675 19.0105 17.5963 19.2481 17.0001 19.25ZM24.7345 18.4062L23.7431 17.0844V16.9156L24.7345 15.5937C24.8099 15.4909 24.8616 15.3726 24.8859 15.2474C24.9102 15.1222 24.9065 14.9931 24.8751 14.8695C24.6935 14.195 24.424 13.5473 24.0735 12.943C24.0106 12.8312 23.9226 12.7356 23.8164 12.6636C23.7103 12.5917 23.5889 12.5453 23.4618 12.5281L21.8376 12.2961L21.704 12.1625L21.472 10.5383C21.4548 10.4112 21.4084 10.2898 21.3364 10.1837C21.2645 10.0775 21.1688 9.98951 21.0571 9.92654C20.4528 9.57612 19.8051 9.30662 19.1306 9.12498C19.0071 9.09151 18.8777 9.08679 18.7521 9.11117C18.6266 9.13554 18.5083 9.18838 18.4063 9.26561L17.0915 10.25H16.9087L15.5939 9.26561C15.491 9.19021 15.3727 9.13851 15.2475 9.1142C15.1223 9.08989 14.9932 9.09357 14.8696 9.12498C14.1951 9.30662 13.5474 9.57612 12.9431 9.92654C12.8314 9.98951 12.7357 10.0775 12.6638 10.1837C12.5918 10.2898 12.5454 10.4112 12.5282 10.5383L12.2962 12.1625C12.2482 12.2034 12.2035 12.2481 12.1626 12.2961L10.5384 12.5281C10.4113 12.5453 10.2899 12.5917 10.1838 12.6636C10.0776 12.7356 9.98963 12.8312 9.92667 12.943C9.57624 13.5473 9.30674 14.195 9.1251 14.8695C9.09164 14.9929 9.08691 15.1224 9.11129 15.248C9.13567 15.3735 9.1885 15.4918 9.26573 15.5937L10.2571 16.9156V17.0844L9.26573 18.4062C9.19034 18.5091 9.13863 18.6274 9.11432 18.7526C9.09001 18.8778 9.09369 19.0068 9.1251 19.1305C9.30674 19.805 9.57624 20.4527 9.92667 21.057C9.98963 21.1687 10.0776 21.2643 10.1838 21.3363C10.2899 21.4083 10.4113 21.4547 10.5384 21.4719L12.1626 21.7039L12.2962 21.8375L12.5282 23.4617C12.5454 23.5888 12.5918 23.7102 12.6638 23.8163C12.7357 23.9225 12.8314 24.0105 12.9431 24.0734C13.5474 24.4239 14.1951 24.6933 14.8696 24.875C14.9405 24.8951 15.014 24.9046 15.0876 24.9031C15.2703 24.9041 15.4483 24.8448 15.5939 24.7344L16.9087 23.75H17.0915L18.4063 24.7344C18.5092 24.8098 18.6275 24.8615 18.7527 24.8858C18.8779 24.9101 19.007 24.9064 19.1306 24.875C19.8051 24.6933 20.4528 24.4239 21.0571 24.0734C21.1688 24.0105 21.2645 23.9225 21.3364 23.8163C21.4084 23.7102 21.4548 23.5888 21.472 23.4617L21.711 21.8305L21.8306 21.7109L23.4618 21.4719C23.5889 21.4547 23.7103 21.4083 23.8164 21.3363C23.9226 21.2643 24.0106 21.1687 24.0735 21.057C24.424 20.4527 24.6935 19.805 24.8751 19.1305C24.9086 19.007 24.9133 18.8776 24.8889 18.752C24.8645 18.6265 24.8117 18.5082 24.7345 18.4062ZM22.8009 19.8617L21.3032 20.0797C21.1157 20.1074 20.9426 20.1964 20.811 20.3328C20.6915 20.4594 20.4665 20.6914 20.354 20.7898C20.2056 20.9237 20.1086 21.1053 20.0798 21.3031L19.8618 22.8008C19.6075 22.9295 19.3443 23.0399 19.0743 23.1312L17.8649 22.2172C17.7055 22.0978 17.5081 22.0403 17.3095 22.0555H16.6907C16.4922 22.0416 16.2953 22.0989 16.1353 22.2172L14.9259 23.1312C14.6559 23.0399 14.3927 22.9295 14.1384 22.8008L13.9204 21.3031C13.8916 21.1053 13.7946 20.9237 13.6462 20.7898C13.4905 20.6553 13.3448 20.5096 13.2103 20.3539C13.0763 20.2055 12.8948 20.1085 12.697 20.0797L11.1993 19.8617C11.0706 19.6074 10.9602 19.3442 10.8689 19.0742L11.7829 17.8648C11.895 17.7121 11.9542 17.5269 11.9517 17.3375C11.9446 17.1617 11.9376 16.8383 11.9446 16.6906C11.9585 16.4921 11.9012 16.2952 11.7829 16.1351L10.8689 14.9258C10.9602 14.6557 11.0706 14.3926 11.1993 14.1383L12.697 13.9203C12.8948 13.8915 13.0763 13.7945 13.2103 13.6461C13.3448 13.4904 13.4905 13.3447 13.6462 13.2101C13.7946 13.0762 13.8916 12.8947 13.9204 12.6969L14.1384 11.1992C14.3927 11.0705 14.6559 10.96 14.9259 10.8687L16.1353 11.7828C16.2947 11.9022 16.4921 11.9596 16.6907 11.9445C16.8946 11.9375 17.1056 11.9375 17.3095 11.9445C17.5081 11.9596 17.7055 11.9022 17.8649 11.7828L19.0743 10.8687C19.3443 10.96 19.6075 11.0705 19.8618 11.1992L20.0798 12.6969C20.1086 12.8947 20.2056 13.0762 20.354 13.2101C20.5097 13.3447 20.6554 13.4904 20.7899 13.6461C20.9239 13.7945 21.1054 13.8915 21.3032 13.9203L22.8009 14.1383C22.9296 14.3926 23.04 14.6557 23.1313 14.9258L22.2173 16.1351C22.1043 16.2871 22.0472 16.4733 22.0556 16.6625C22.0556 16.8383 22.0626 17.1617 22.0556 17.3094C22.0404 17.508 22.0979 17.7054 22.2173 17.8648L23.1313 19.0742C23.04 19.3442 22.9296 19.6074 22.8009 19.8617Z" fill="white"/>
</svg>
